<svg xmlns="http://www.w3.org/2000/svg" xmlns:xlink="http://www.w3.org/1999/xlink" id="Layer_1" x="0px" y="0px" viewBox="0 0 3140 3140" style="enable-background:new 0 0 3140 3140;" xml:space="preserve"><style type="text/css">	.st0{fill:#C29774;}	.st1{fill:url(#SVGID_1_);}	.st2{fill:url(#XMLID_2_);}	.st3{fill:url(#XMLID_3_);}	.st4{fill:#A57B5D;}	.st5{fill:url(#SVGID_2_);}</style><g>	<circle class="st0" cx="2909.599" cy="1484.886" r="41.908"/>	<circle class="st0" cx="234.339" cy="1484.886" r="41.908"/>	<g>		<linearGradient id="SVGID_1_" gradientUnits="userSpaceOnUse" x1="1570" y1="395.7776" x2="1570" y2="2744.2224">			<stop offset="0" style="stop-color:#D5C294"/>			<stop offset="1" style="stop-color:#A57B5D"/>		</linearGradient>		<path class="st1" d="M1569.999,2744.222c-158.512,0-312.291-31.048-457.064-92.282   c-139.828-59.141-265.402-143.805-373.236-251.639c-107.834-107.834-192.498-233.409-251.639-373.236   c-61.234-144.773-92.282-298.551-92.282-457.064s31.048-312.292,92.282-457.065C547.2,973.109,631.864,847.533,739.699,739.699   c107.834-107.833,233.409-192.497,373.236-251.639c144.773-61.234,298.551-92.282,457.064-92.282s312.291,31.048,457.064,92.282   c139.828,59.142,265.405,143.806,373.239,251.639c107.834,107.834,192.498,233.41,251.639,373.238   c61.234,144.773,92.282,298.553,92.282,457.065s-31.048,312.291-92.282,457.064c-59.141,139.828-143.805,265.402-251.639,373.236   c-107.834,107.834-233.412,192.498-373.239,251.639C1882.289,2713.174,1728.511,2744.222,1569.999,2744.222z M1569.999,422.092   c-632.959,0-1147.907,514.95-1147.907,1147.91c0,632.959,514.948,1147.907,1147.907,1147.907s1147.91-514.948,1147.91-1147.907   C2717.908,937.041,2202.957,422.092,1569.999,422.092z"/>	</g>	<g>		<linearGradient id="XMLID_2_" gradientUnits="userSpaceOnUse" x1="1151.9529" y1="846.2378" x2="1151.9529" y2="1956.359">			<stop offset="0" style="stop-color:#F3DEBB"/>			<stop offset="0.1507" style="stop-color:#F3DEBB"/>			<stop offset="0.3502" style="stop-color:#E5C6A1"/>			<stop offset="0.6129" style="stop-color:#D5A983"/>			<stop offset="0.793" style="stop-color:#A57B5D"/>		</linearGradient>		<path id="XMLID_5_" class="st2" d="M1391.789,1434.676c14.538,9.272,29.11,19.392,40.102,33.182   c6.223,6.29,10.418,14.099,15.461,21.365c3.734,7.946,8.447,15.629,10.807,24.211c11.775,33.587,10.346,71.437-2.12,105.078   c-5.84,17.082-15.618,32.662-27.082,46.733l-9.157,10.182l-10.357,9.04c-6.914,6.054-15.151,11.119-23.723,14.92   c-34.287,15.735-77.334,12.197-108.651-11.28c-30.341-24.021-48.202-57.731-59.498-92.228   c-11.162-34.74-15.251-70.777-16.306-106.38c-1.052-35.818,2.542-72.263,12.519-107.556c9.909-35.216,26.766-69.401,51.365-97.924   c24.63-28.116,54.8-51.31,90.435-65.766c17.746-7.203,36.905-11.68,56.545-12.78c19.816-1.14,39.64,1.703,58.245,7.41   c37.277,11.624,69.536,34.172,94.983,62.042c25.622,27.843,44.39,61.026,57.387,95.475c13.117,34.519,20.49,70.483,24.481,106.344   c1.977,17.949,3.051,35.919,3.432,53.831c0.571,17.872-0.811,35.898-1.161,53.843c-4.593,71.619-22.63,144.843-62.379,207.969   c-20.163,31.166-45.419,59.322-74.909,82.153c-29.664,22.733-62.564,40.547-98.792,52.087   c-18.823,5.708-38.488,8.413-58.108,8.125c-9.812-0.168-19.615-1.082-29.3-2.744c-9.854-1.628-18.672-4.408-27.966-6.816   c-36.346-11.42-69.405-30.413-97.816-53.488c-57.191-46.219-99.933-103.6-140.706-160.086   c-40.782-56.545-78.257-114.766-122.65-165.327c-11.101-12.604-22.865-24.341-35.118-35.297   c-12.404-10.859-25.415-20.627-38.824-27.249c-27.312-13.66-60.142-16.727-89.895-8.214c-29.865,8.279-55.91,28.384-70.773,55.998   c-15.528,28.408-23.458,61.395-26.464,94.573c-3.004,33.314-0.517,67.309,6.984,100.192c7.896,32.704,20.705,64.642,40.628,91.875   c19.411,27.527,46.96,49.295,78.965,60.623c32.111,11.467,67.786,11.135,101.581,3.731c-33.18,9.599-69.33,12.58-103.678,2.867   c-34.069-9.999-64.547-31.776-86.505-59.831c-22.515-27.801-37.688-60.779-47.735-94.896   c-9.638-34.304-14.091-70.103-12.656-106.007c1.734-35.795,9.014-72.019,25.547-105.284   c16.767-34.311,48.769-61.154,85.417-72.589c36.564-12.021,77.614-9.283,112.768,7.08c17.878,8.335,33.003,19.378,46.968,30.936   c13.909,11.781,27.024,24.266,39.187,37.368c48.672,52.494,87.741,110.522,128.724,165.839   c40.907,55.06,83.3,109.264,135.068,149.6c50.764,39.984,115.16,65.282,173.29,46.191c29.798-9.674,58.766-25.373,83.96-44.966   c25.281-19.755,46.792-44.101,64.248-71.156c34.729-54.548,51.72-119.889,56.304-186.166c4.307-66.551-0.92-134.886-22.697-196.1   c-10.975-30.503-26.657-58.948-47.687-82.525c-20.767-23.586-47.251-42.355-76.193-51.824   c-28.875-9.785-59.649-8.114-88.877,2.898c-29.051,10.796-56.008,30.191-77.544,53.629c-21.38,23.541-36.827,52.537-46.484,83.729   c-9.697,31.246-13.887,64.475-14.222,97.919c-0.215,33.599,2.495,67.31,11.481,99.048c4.427,15.861,10.542,31.124,18.527,45.195   c7.814,13.881,18.157,27.394,29.622,37.004c23.46,19.657,58.796,24.884,88.2,13.071c7.403-2.864,14.343-6.61,20.711-11.68   l9.635-7.581l8.656-8.749c10.933-12.176,20.686-25.964,26.831-41.5c13.104-30.548,16.27-66.05,6.777-98.552   C1443.299,1482.446,1420.275,1454.152,1391.789,1434.676z"/>		<linearGradient id="XMLID_3_" gradientUnits="userSpaceOnUse" x1="1993.2159" y1="846.2378" x2="1993.2159" y2="1956.359">			<stop offset="0" style="stop-color:#F3DEBB"/>			<stop offset="0.1507" style="stop-color:#F3DEBB"/>			<stop offset="0.3502" style="stop-color:#E5C6A1"/>			<stop offset="0.6129" style="stop-color:#D5A983"/>			<stop offset="0.793" style="stop-color:#A57B5D"/>		</linearGradient>		<path id="XMLID_4_" class="st3" d="M1753.38,1434.676c-28.489,19.476-51.51,47.77-59.806,80.819   c-9.495,32.501-6.327,68.004,6.777,98.552c6.145,15.537,15.898,29.324,26.828,41.5l8.659,8.749l9.635,7.581   c6.366,5.069,13.308,8.816,20.711,11.68c29.404,11.813,64.74,6.585,88.2-13.071c11.464-9.61,21.805-23.123,29.622-37.004   c7.985-14.071,14.096-29.334,18.524-45.195c8.989-31.738,11.699-65.449,11.484-99.048c-0.336-33.444-4.525-66.674-14.222-97.919   c-9.658-31.192-25.105-60.188-46.484-83.729c-21.536-23.438-48.493-42.833-77.544-53.629   c-29.228-11.011-60.002-12.682-88.877-2.898c-28.942,9.469-55.426,28.237-76.193,51.824   c-21.03,23.578-36.715,52.022-47.687,82.525c-21.777,61.214-27.007,129.549-22.7,196.1   c4.587,66.277,21.578,131.618,56.307,186.166c17.455,27.054,38.966,51.401,64.248,71.156   c25.194,19.592,54.162,35.291,83.96,44.966c58.131,19.092,122.526-6.206,173.29-46.191c51.768-40.337,94.16-94.541,135.068-149.6   c40.983-55.317,80.053-113.346,128.724-165.839c12.164-13.102,25.279-25.588,39.188-37.368   c13.965-11.558,29.091-22.602,46.968-30.936c35.154-16.363,76.204-19.101,112.768-7.08c36.648,11.435,68.647,38.278,85.417,72.589   c16.53,33.265,23.81,69.489,25.547,105.284c1.435,35.904-3.018,71.703-12.659,106.007c-10.044,34.117-25.217,67.095-47.735,94.896   c-21.956,28.056-52.436,49.832-86.502,59.831c-34.349,9.714-70.499,6.732-103.678-2.867c33.792,7.403,69.469,7.736,101.581-3.731   c32.005-11.327,59.554-33.096,78.965-60.623c19.92-27.233,32.732-59.171,40.628-91.875c7.501-32.883,9.985-66.878,6.984-100.192   c-3.009-33.178-10.936-66.165-26.464-94.573c-14.863-27.614-40.907-47.719-70.773-55.998c-29.756-8.512-62.583-5.446-89.895,8.214   c-13.408,6.622-26.42,16.39-38.827,27.249c-12.25,10.955-24.014,22.693-35.115,35.297   c-44.392,50.561-81.868,108.783-122.649,165.327c-40.773,56.486-83.516,113.867-140.706,160.086   c-28.411,23.074-61.47,42.068-97.816,53.488c-9.294,2.408-18.113,5.188-27.966,6.816c-9.686,1.661-19.489,2.576-29.3,2.744   c-19.623,0.288-39.285-2.417-58.108-8.125c-36.228-11.54-69.131-29.353-98.792-52.087c-29.49-22.831-54.746-50.987-74.909-82.153   c-39.75-63.126-57.787-136.35-62.379-207.969c-0.352-17.945-1.731-35.971-1.161-53.843c0.38-17.911,1.454-35.881,3.432-53.831   c3.988-35.86,11.364-71.824,24.481-106.344c12.997-34.449,31.764-67.632,57.387-95.475c25.446-27.87,57.706-50.418,94.983-62.042   c18.605-5.707,38.427-8.55,58.245-7.41c19.64,1.101,38.799,5.577,56.545,12.78c35.635,14.456,65.805,37.65,90.432,65.766   c24.601,28.523,41.458,62.708,51.368,97.924c9.976,35.293,13.568,71.738,12.519,107.556c-1.054,35.603-5.146,71.64-16.306,106.38   c-11.297,34.497-29.158,68.207-59.501,92.228c-31.314,23.477-74.361,27.015-108.648,11.28c-8.573-3.801-16.809-8.866-23.723-14.92   l-10.357-9.04l-9.157-10.182c-11.464-14.071-21.242-29.651-27.085-46.733c-12.463-33.641-13.895-71.492-2.117-105.078   c2.358-8.582,7.073-16.265,10.807-24.211c5.043-7.266,9.238-15.075,15.458-21.365   C1724.27,1454.068,1738.842,1443.948,1753.38,1434.676z"/>	</g>	<g>		<path class="st4" d="M306.402,955.332c-10.736,22.154-8.913,40.971,5.858,48.128c44.8,21.71,68.413-86.604,130.818-56.062   c28.554,13.835,34.728,48.138,16.837,85.062c-12.168,25.106-34.928,44.475-58.309,53.206l-12.69-17.096   c23.016-8.604,42.492-26.217,51.917-45.661c12.048-24.864,9.471-45.263-7.27-53.375c-45.913-22.552-68.539,86.244-130.325,56.303   c-27.076-13.123-32.737-45.35-15.441-81.041c9.662-19.94,25.963-37.268,42.482-46.893l13.423,16.839   C326.092,925.359,313.081,941.545,306.402,955.332z"/>		<path class="st4" d="M562.674,649.934c32.808,26.427,34.61,63.004,4.924,99.863l-31.405,38.987l47.297,38.096l-13.728,17.044   L420.627,723.801l45.133-56.032C495.447,630.911,530.931,624.364,562.674,649.934z M549.887,666.681   c-22.796-18.364-47.254-12.42-68.876,14.425l-30.89,38.349l70.308,56.63l30.888-38.348   C572.94,710.891,573.323,685.557,549.887,666.681z"/>		<path class="st4" d="M821.064,526.764l-82.223,64.031l13.251,51.74l-18.344,14.286l-49.884-203.837l17.912-13.951l185.195,98.461   l-18.776,14.62L821.064,526.764z M801.719,516.172l-94.816-50.966l26.622,104.077L801.719,516.172z"/>		<path class="st4" d="M1118.073,420.146l-61.718-39.524c-3.383,1.813-7.018,3.738-11.014,5.525l-46.448,20.765l24.789,55.44   l-19.978,8.931L925.547,296.48l66.425-29.7c43.7-19.539,78.525-9.337,95.16,27.866c12.84,28.721,7.427,54.812-14.222,74.08   l67.886,41.26L1118.073,420.146z M1037.078,367.665c31.715-14.178,43.331-36.45,31.049-63.918   c-11.948-26.721-36.179-32.666-67.892-18.488l-46.446,20.768l36.844,82.406L1037.078,367.665z"/>		<path class="st4" d="M1413.682,343.862l-85.595-77.16l-29.351,46.973l8.864,49.273l-21.542,3.873l-33.905-188.473l21.54-3.873   l19.714,109.585l81.525-127.797l25.577-4.601l-60.08,95.585l99.64,91.871L1413.682,343.862z"/>		<path class="st4" d="M1935.151,190.202l-4.226,19.797l-105.667-22.532l-13.408,62.868l94.435,20.137l-4.163,19.53l-94.435-20.138   l-13.922,65.274l109.151,23.279l-4.223,19.793l-130.551-27.84l39.937-187.263L1935.151,190.202z"/>		<path class="st4" d="M2117.534,252.061l-11.287,179.066l130.873-122.88l20.798,9.771l-152.237,140.047l-20.549-9.658   l11.107-206.351L2117.534,252.061z"/>		<path class="st4" d="M2510.348,495.796l-12.569,15.872l-84.712-67.079l-39.908,50.4l75.704,59.945l-12.397,15.655l-75.704-59.946   l-41.435,52.328l87.502,69.287l-12.569,15.87L2289.6,565.257l118.876-150.125L2510.348,495.796z"/>		<path class="st4" d="M2664.564,654.492l-53.345,185.948l123.375-94.88l13.174,17.13l-151.78,116.72l-13.674-17.78l53.128-185.779   l-123.159,94.71l-13.34-17.344l151.78-116.721L2664.564,654.492z"/>		<path class="st4" d="M2900.456,1052.309l-18.456,8.322l-25.749-57.109l-156.12,70.385l-8.991-19.948l156.117-70.388   l-25.634-56.862l18.456-8.319L2900.456,1052.309z"/>	</g>	<g>		<path class="st4" d="M367.625,1905.5c-6.618-23.71-20.446-36.607-36.253-32.193c-47.945,13.388,6.062,110.199-60.931,128.615   c-30.56,8.534-57.893-13.086-68.926-52.602c-7.501-26.871-3.266-56.451,8.477-78.474l20.826,4.408   c-11.555,21.686-14.49,47.78-8.683,68.592c7.429,26.608,22.868,40.191,40.784,35.188c49.333-13.491-5.725-110.007,60.403-128.469   c28.975-8.092,54.552,12.315,65.217,50.515c5.959,21.34,5.217,45.119-0.797,63.267l-21.203-3.735   C372.704,1940.999,371.742,1920.253,367.625,1905.5z"/>		<path class="st4" d="M463.473,2303.025c-47.06,26.26-105.919,8.354-133.109-40.376c-27.325-48.971-11.655-108.463,35.405-134.72   c47.057-26.262,105.676-8.223,133.004,40.75C525.963,2217.408,510.53,2276.766,463.473,2303.025z M376.565,2147.277   c-37.027,20.661-49.559,68.377-28.761,105.642c20.789,37.264,67.712,51.18,104.739,30.52   c37.024-20.661,49.345-67.633,28.55-104.896C460.301,2141.275,413.592,2126.616,376.565,2147.277z"/>		<path class="st4" d="M647.968,2381.308l-126.822,115.052l56.423,62.199l-14.993,13.6l-71.127-78.405l141.818-128.652   L647.968,2381.308z"/>		<path class="st4" d="M768.411,2718.248c29.843,20.809,60.309,15.376,81.9-15.59l64.455-92.442l17.951,12.514l-64.457,92.445   c-28.63,41.059-70.208,48.083-111.269,19.453c-41.284-28.787-49.29-70.385-20.663-111.446l64.46-92.439l17.948,12.512   l-64.457,92.442C732.689,2666.662,738.571,2697.439,768.411,2718.248z"/>		<path class="st4" d="M1181.807,2737.367l-7.609,18.759l-58.047-23.553l-64.386,158.687l-20.278-8.229l64.38-158.684l-57.793-23.45   l7.612-18.759L1181.807,2737.367z"/>		<path class="st4" d="M1331.847,2774.674l-39.06,187.445l-21.42-4.466l39.06-187.445L1331.847,2774.674z"/>		<path class="st4" d="M1670.666,2893.772c0.026,53.89-44.271,96.585-100.071,96.613c-56.077,0.026-100.411-42.623-100.439-96.513   c-0.026-53.887,44.268-96.308,100.345-96.336C1626.304,2797.507,1670.641,2839.885,1670.666,2893.772z M1492.313,2893.864   c0.023,42.398,35.602,76.572,78.274,76.552c42.672-0.02,77.669-34.232,77.649-76.632c-0.023-42.4-35.054-76.03-77.726-76.007   C1527.838,2817.8,1492.293,2851.463,1492.313,2893.864z"/>		<path class="st4" d="M1827.8,2771.836l150.875,121.091l-39.805-150.475l20.892-5.528l48.968,185.115l-21.683,5.739   l-150.806-120.826l39.737,150.209l-21.157,5.596l-48.973-185.118L1827.8,2771.836z"/>		<path class="st4" d="M2162.678,2668.544c-21.683,11.664-31.234,27.981-23.456,42.438c23.582,43.851,106.198-30.092,138.871,31.234   c15.03,27.947-0.065,59.366-36.207,78.802c-24.575,13.217-54.367,15.575-78.434,8.948l-0.268-21.292   c23.696,6.516,49.804,3.658,68.837-6.578c24.333-13.089,34.2-31.131,25.392-47.511c-23.993-45.187-106.093,29.72-138.617-30.751   c-14.253-26.505,0.046-55.94,34.98-74.728c19.516-10.496,42.88-14.99,61.91-13.105l1.008,21.511   C2196.202,2655.795,2176.169,2661.289,2162.678,2668.544z"/>		<path class="st4" d="M2481.485,2393.283L2610.382,2506l55.278-63.213l15.236,13.325l-69.68,79.685l-144.136-126.042   L2481.485,2393.283z"/>		<path class="st4" d="M2673.629,2113.037l17.608,9.982l-30.897,54.495l148.967,84.458l-10.793,19.039l-148.967-84.458   l-30.76,54.256l-17.611-9.982L2673.629,2113.037z"/>		<path class="st4" d="M2866.761,1852.469c52.188,15.507,79.553,68.44,63.504,122.459l-21.817,73.426l-183.562-54.538l22.048-74.211   C2762.83,1866.109,2814.579,1836.965,2866.761,1852.469z M2860.717,1873.789c-41.433-12.312-82.3,10.936-94.532,52.106   l-15.661,52.708l144.753,43.009l15.895-53.496C2923.324,1927.205,2901.887,1886.021,2860.717,1873.789z"/>	</g>	<g>		<linearGradient id="SVGID_2_" gradientUnits="userSpaceOnUse" x1="1570" y1="42" x2="1570" y2="3098">			<stop offset="0" style="stop-color:#D5C294"/>			<stop offset="1" style="stop-color:#A57B5D"/>		</linearGradient>		<path class="st5" d="M1569.999,3098c-206.272,0-406.383-40.402-594.77-120.083c-181.955-76.96-345.365-187.134-485.689-327.458   c-140.324-140.324-250.496-303.734-327.456-485.688C82.402,1976.384,42,1776.274,42,1570.001s40.402-406.383,120.083-594.771   c76.961-181.955,187.132-345.365,327.456-485.689s303.734-250.497,485.689-327.458C1163.616,82.402,1363.726,42,1569.999,42   s406.383,40.402,594.773,120.083c181.954,76.961,345.363,187.133,485.688,327.458   c140.324,140.324,250.497,303.734,327.458,485.689C3057.598,1163.619,3098,1363.729,3098,1570.001s-40.402,406.383-120.083,594.77   c-76.96,181.954-187.134,345.363-327.458,485.688c-140.324,140.324-303.734,250.497-485.688,327.458   C1976.381,3057.598,1776.271,3098,1569.999,3098z M1569.999,68.314c-828.031,0-1501.684,673.655-1501.684,1501.687   s673.653,1501.685,1501.684,1501.685c828.033,0,1501.688-673.652,1501.688-1501.685S2398.031,68.314,1569.999,68.314z"/>	</g></g></svg>